<?xml version="1.0" encoding="UTF-8" standalone="no"?>
<!-- Created with Inkscape (http://www.inkscape.org/) -->

<svg
   width="15.999999mm"
   height="16mm"
   viewBox="0 0 15.999999 16"
   version="1.1"
   id="svg5"
   xmlns="http://www.w3.org/2000/svg"
   xmlns:svg="http://www.w3.org/2000/svg">
  <defs
     id="defs2" />
  <g
     id="layer1">
    <path
       d="M 0.66382904,15.55194 H 15.33617 V 0.44805912 H 0.66382904 Z M 1.5269079,14.688861 V 12.004168 H 14.473092 v 2.684693 z m 6.6676732,-3.56046 H 3.0584846 L 5.6265329,7.838302 Z M 8.062271,9.5561743 9.5158254,8.1613093 12.73744,11.141089 H 9.2993652 Z m 6.410821,-4.9405658 c -0.275495,0.097916 -0.56467,0.1478454 -0.863079,0.1478454 -1.427706,0 -2.589237,-1.1615317 -2.589237,-2.5892368 0,-0.298237 0.04988,-0.5874115 0.147673,-0.863079 h 3.304643 z M 1.5269079,1.3111381 h 8.7393641 c -0.07211,0.2795945 -0.108575,0.5681649 -0.108575,0.863079 0,1.9036069 1.548709,3.4523158 3.452316,3.4523158 0.295043,0 0.583571,-0.036508 0.863079,-0.1086616 V 11.141089 H 14.008453 L 9.5049506,6.9756116 7.5284568,8.8722705 5.6265329,6.4355831 1.9537436,11.141089 H 1.5269079 Z"
       id="path17620"
       style="stroke-width:0.0431539" />
  </g>
</svg>
