<?xml version="1.0" encoding="UTF-8" standalone="no"?>
<!-- Created with Inkscape (http://www.inkscape.org/) -->

<svg
   width="15.999999mm"
   height="16mm"
   viewBox="0 0 15.999999 16"
   version="1.1"
   id="svg5"
   sodipodi:docname="icon.svg"
   inkscape:version="1.2.2 (b0a8486541, 2022-12-01, custom)"
   xmlns:inkscape="http://www.inkscape.org/namespaces/inkscape"
   xmlns:sodipodi="http://sodipodi.sourceforge.net/DTD/sodipodi-0.dtd"
   xmlns="http://www.w3.org/2000/svg"
   xmlns:svg="http://www.w3.org/2000/svg">
  <sodipodi:namedview
     id="namedview1535"
     pagecolor="#ffffff"
     bordercolor="#000000"
     borderopacity="0.25"
     inkscape:showpageshadow="2"
     inkscape:pageopacity="0.0"
     inkscape:pagecheckerboard="0"
     inkscape:deskcolor="#d1d1d1"
     inkscape:document-units="mm"
     showgrid="false"
     inkscape:zoom="7.0279948"
     inkscape:cx="31.303381"
     inkscape:cy="29.809356"
     inkscape:window-width="1280"
     inkscape:window-height="1016"
     inkscape:window-x="1280"
     inkscape:window-y="27"
     inkscape:window-maximized="0"
     inkscape:current-layer="layer1" />
  <defs
     id="defs2" />
  <g
     id="layer1"
     style="stroke:none;stroke-opacity:1;fill-opacity:1">
    <path
       id="path150"
       d="m 5.1868573,2.1486209 c -0.1777955,-0.00865 -0.255816,0.00441 -0.2688772,0.043431 -0.013061,0.034775 -0.017319,0.459913 -0.013074,0.9457895 l 0.013074,0.8894757 H 5.1782157 5.4384514 V 3.0945702 2.1616952 Z M 1.7292407,3.5283705 c -0.039021,0 -0.1475777,0.078054 -0.2386795,0.1735646 L 1.321397,3.8754681 1.9677608,4.5262644 c 0.3557544,0.3601625 0.6725132,0.6507644 0.6942273,0.6507644 0.056327,0 0.3688135,-0.3123235 0.3688133,-0.3688132 0,-0.069388 -1.2321731,-1.2798453 -1.3015607,-1.2798451 z m 6.9372999,0 c -0.034772,0 -0.3384606,0.2775509 -0.6811538,0.6204073 -0.3384477,0.338448 -0.615975,0.6377159 -0.615975,0.6638383 0,0.056326 0.3123195,0.3644127 0.3730542,0.3644127 0.069393,0 1.2755724,-1.2321655 1.2755724,-1.3059612 0,-0.082449 -0.2646413,-0.3426971 -0.3514978,-0.3426971 z M 5.2878137,4.5169533 c -0.1397751,-0.00346 -0.2861974,0.00277 -0.4434624,0.017953 -1.1583647,0.1084078 -2.1996683,1.071668 -2.4381982,2.2559917 -0.086693,0.420897 -0.086693,0.6898164 0,1.1107126 0.112816,0.572734 0.3557448,1.015175 0.7895397,1.453378 0.2298771,0.234286 0.2515852,0.247329 0.3036666,0.173534 0.030367,-0.04343 0.1214809,-0.169139 0.1995216,-0.277711 L 3.8462977,9.0468892 3.6381347,8.8430002 C 2.9960139,8.2095322 2.8441925,7.1379999 3.2823955,6.3309814 3.9635369,5.0728619 5.6381421,4.8038135 6.6880988,5.7930356 l 0.2212048,0.203922 0.2169965,-0.203922 C 7.2477685,5.6802197 7.3519261,5.5674007 7.3605783,5.5414417 7.3865391,5.4503396 6.831282,5.0034817 6.4799358,4.8299312 6.0666716,4.6249519 5.7071394,4.5273308 5.2878137,4.5169533 Z m 4.0905872,0.917537 C 9.1427136,5.4350828 8.9073686,5.4643351 8.6796144,5.5239666 8.1762679,5.658497 7.7859018,5.8841299 7.391127,6.2831493 6.8574142,6.8126174 6.5449231,7.5154891 6.5449231,8.1791602 v 0.251595 H 6.2542985 c -0.9284878,0.00429 -1.835109,0.542351 -2.2907815,1.366676 -0.7808961,1.4099558 -0.2212112,3.1410698 1.2321731,3.8049058 0.546611,0.251591 0.5336996,0.251594 4.3776086,0.251594 3.0543613,0 3.5706093,-0.0087 3.8612203,-0.06939 0.646529,-0.134531 1.145488,-0.407854 1.640018,-0.906791 0.984813,-0.989222 1.206194,-2.503336 0.555419,-3.7528018 -0.390529,-0.746121 -1.071676,-1.30154 -1.926368,-1.5704377 -0.277714,-0.086693 -0.416485,-0.099776 -0.94579,-0.099776 H 12.141791 L 12.072408,7.2465727 C 11.972654,6.9429 11.616902,6.4309128 11.313066,6.1576074 10.795597,5.6889962 10.08547,5.4327143 9.3784052,5.4344898 Z m 0.020251,0.7901774 c 0.1171015,0 0.2353232,0.01954 0.4132003,0.058642 0.5727348,0.1214691 1.1237398,0.5206592 1.3883918,1.0065356 0.06514,0.1258777 0.182208,0.4251341 0.251595,0.6724799 0.07379,0.247346 0.138768,0.451264 0.143176,0.459917 0.0087,0.0044 0.20394,-0.03035 0.442633,-0.08243 1.045548,-0.221224 1.813528,-0.03038 2.45124,0.607334 0.754937,0.754936 0.919864,1.8915978 0.416518,2.8417998 -0.290611,0.555428 -0.967512,1.071674 -1.561797,1.193143 -0.156244,0.03477 -1.353645,0.04765 -3.8742942,0.039 L 5.8250579,13.008046 5.4996758,12.847555 C 5.096248,12.648045 4.7708551,12.318231 4.5842433,11.919048 4.3976315,11.519865 4.3672832,10.968874 4.5018135,10.565446 4.7360987,9.8756522 5.2436819,9.4201192 5.9334763,9.2725272 c 0.242938,-0.04767 0.4034424,-0.05206 0.7939721,-0.01728 0.2688974,0.02171 0.5248747,0.0434 0.568303,0.0434 0.069383,0 0.073793,-0.05646 0.069383,-0.663807 -0.0044,-0.403591 0.013061,-0.733249 0.047672,-0.8547183 C 7.616723,7.0251872 8.2284867,6.4482125 8.9920766,6.283315 9.1655449,6.2442128 9.2815432,6.224673 9.3986448,6.224673 Z M 0.92662701,7.0430659 C 0.50577081,7.0414347 0.0871268,7.053358 0.04598404,7.0815221 0.00696342,7.1032362 -0.00609961,7.1943193 0.00255255,7.3721148 l 0.01307377,0.2560263 0.88504333,0.013039 c 0.61599875,0.00869 0.90236515,-0.0044 0.94154855,-0.039 0.034776,-0.030372 0.060747,-0.1345529 0.060747,-0.2602674 0,-0.1648975 -0.017319,-0.2212191 -0.082462,-0.2559945 -0.049959,-0.02604 -0.4730205,-0.041224 -0.89387619,-0.042857 z M 2.6663887,9.5153202 c -0.026123,1.6e-4 -0.3384413,0.290769 -0.6941955,0.6465228 l -0.6463639,0.650765 0.1170597,0.15185 c 0.2256323,0.299428 0.2690553,0.28196 0.9240741,-0.368813 0.3209788,-0.32098 0.6030936,-0.6160138 0.6248079,-0.6551978 0.030367,-0.06073 0.00441,-0.112819 -0.1172193,-0.251594 -0.086693,-0.0955 -0.177959,-0.173533 -0.208163,-0.173533 z"
       style="stroke-width:0.00163265" />
  </g>
</svg>
