<?xml version="1.0" encoding="UTF-8" standalone="no"?>
<!-- Generator: Adobe Illustrator 15.1.0, SVG Export Plug-In . SVG Version: 6.00 Build 0)  -->

<svg
   version="1.1"
   id="Layer_1"
   x="0px"
   y="0px"
   width="66.292999"
   height="66"
   viewBox="0 0 66.292999 66"
   enable-background="new 0 0 100 100"
   xml:space="preserve"
   sodipodi:docname="01d.svg"
   inkscape:version="1.2.2 (b0a8486541, 2022-12-01, custom)"
   xmlns:inkscape="http://www.inkscape.org/namespaces/inkscape"
   xmlns:sodipodi="http://sodipodi.sourceforge.net/DTD/sodipodi-0.dtd"
   xmlns="http://www.w3.org/2000/svg"
   xmlns:svg="http://www.w3.org/2000/svg"><defs
   id="defs2192" /><sodipodi:namedview
   id="namedview2190"
   pagecolor="#ffffff"
   bordercolor="#000000"
   borderopacity="0.25"
   inkscape:showpageshadow="2"
   inkscape:pageopacity="0.0"
   inkscape:pagecheckerboard="0"
   inkscape:deskcolor="#d1d1d1"
   showgrid="false"
   inkscape:zoom="4.25"
   inkscape:cx="46.823529"
   inkscape:cy="49.058824"
   inkscape:window-width="1280"
   inkscape:window-height="1016"
   inkscape:window-x="1280"
   inkscape:window-y="27"
   inkscape:window-maximized="0"
   inkscape:current-layer="Layer_1" />
<path
   fill-rule="evenodd"
   clip-rule="evenodd"
   d="m 55.143501,34.999001 h -3.998 c -1.105,0 -2,-0.895 -2,-1.999 0,-1.104 0.895,-2 2,-2 h 3.998 c 1.105,0 2,0.896 2,2 0,1.104 -0.894,1.999 -2,1.999 z m -7.855,-13.311 c -0.781,0.781 -2.049,0.781 -2.828,0 -0.781,-0.781 -0.781,-2.047 0,-2.828 l 2.828,-2.828 c 0.779,-0.781 2.047,-0.781 2.828,0 0.779,0.781 0.779,2.047 0,2.828 z m -14.141,23.31 c -6.627,0 -12,-5.372 -12,-11.998 0,-6.627 5.372,-11.999 12,-11.999 6.627,0 11.998,5.372 11.998,11.999 0,6.626 -5.371,11.998 -11.998,11.998 z m 0,-19.997 c -4.418,0 -8,3.581 -8,7.999 0,4.417 3.583,7.999 8,7.999 4.417,0 7.998,-3.582 7.998,-7.999 0,-4.418 -3.58,-7.999 -7.998,-7.999 z m 0,-7.999 c -1.105,0 -2,-0.896 -2,-2 v -3.999 c 0,-1.1039995 0.895,-1.9999995 2,-1.9999995 1.104,0 2,0.896 2,1.9999995 v 3.999 c 0,1.104 -0.897,2 -2,2 z m -14.141,4.686 -2.828,-2.828 c -0.781,-0.781 -0.781,-2.047 0,-2.828 0.781,-0.781 2.047,-0.781 2.828,0 l 2.828,2.828 c 0.781,0.781 0.781,2.047 0,2.828 -0.781,0.781 -2.047,0.781 -2.828,0 z m -1.858,11.312 c 0,1.104 -0.896,1.999 -2,1.999 h -4 c -1.104,0 -1.9989999,-0.895 -1.9989999,-1.999 0,-1.104 0.8959999,-2 1.9989999,-2 h 4 c 1.105,0 2,0.896 2,2 z m 1.858,11.312 c 0.781,-0.78 2.047,-0.78 2.828,0 0.781,0.781 0.781,2.048 0,2.828 l -2.828,2.828 c -0.781,0.781 -2.047,0.781 -2.828,0 -0.781,-0.78 -0.781,-2.047 0,-2.828 z m 14.141,4.686 c 1.104,0 2,0.895 2,1.999 v 4 c 0,1.104 -0.896,2 -2,2 -1.105,0 -2,-0.896 -2,-2 v -4 c 0,-1.104 0.895,-1.999 2,-1.999 z m 14.141,-4.686 2.828,2.828 c 0.779,0.781 0.779,2.048 0,2.828 -0.781,0.781 -2.049,0.781 -2.828,0 l -2.828,-2.828 c -0.781,-0.78 -0.781,-2.047 0,-2.828 0.779,-0.781 2.046,-0.781 2.828,0 z"
   id="path2187" />
</svg>
