<?xml version="1.0" encoding="UTF-8" standalone="no"?>
<!-- Generator: Adobe Illustrator 15.1.0, SVG Export Plug-In . SVG Version: 6.00 Build 0)  -->

<svg
   version="1.1"
   id="Layer_1"
   x="0px"
   y="0px"
   width="66.292999"
   height="66"
   viewBox="0 0 66.292999 66"
   enable-background="new 0 0 100 100"
   xml:space="preserve"
   sodipodi:docname="01n.svg"
   inkscape:version="1.2.2 (b0a8486541, 2022-12-01, custom)"
   xmlns:inkscape="http://www.inkscape.org/namespaces/inkscape"
   xmlns:sodipodi="http://sodipodi.sourceforge.net/DTD/sodipodi-0.dtd"
   xmlns="http://www.w3.org/2000/svg"
   xmlns:svg="http://www.w3.org/2000/svg"><defs
   id="defs2068" /><sodipodi:namedview
   id="namedview2066"
   pagecolor="#ffffff"
   bordercolor="#000000"
   borderopacity="0.25"
   inkscape:showpageshadow="2"
   inkscape:pageopacity="0.0"
   inkscape:pagecheckerboard="0"
   inkscape:deskcolor="#d1d1d1"
   showgrid="false"
   inkscape:zoom="4.25"
   inkscape:cx="28"
   inkscape:cy="49.058824"
   inkscape:window-width="1280"
   inkscape:window-height="1016"
   inkscape:window-x="1280"
   inkscape:window-y="27"
   inkscape:window-maximized="0"
   inkscape:current-layer="Layer_1" />
<path
   fill-rule="evenodd"
   clip-rule="evenodd"
   d="m 33.146501,44.998001 c -6.627,0 -11.999,-5.372 -11.999,-11.998 0,-6.627 5.372,-11.999 11.999,-11.999 0.755,0 1.491,0.078 2.207,0.212 -0.132,0.576 -0.208,1.173 -0.208,1.788 0,4.418 3.582,7.999 8,7.999 0.615,0 1.212,-0.076 1.788,-0.208 0.133,0.717 0.211,1.452 0.211,2.208 0,6.626 -5.372,11.998 -11.998,11.998 z m -1.788,-19.79 c -3.556,0.813 -6.211,3.989 -6.211,7.792 0,4.417 3.581,7.999 7.999,7.999 3.802,0 6.978,-2.655 7.791,-6.211 -4.854,-0.904 -8.676,-4.726 -9.579,-9.58 z"
   id="path2063" />
</svg>
