<?xml version="1.0" encoding="UTF-8" standalone="no"?>
<!-- Generator: Adobe Illustrator 15.1.0, SVG Export Plug-In . SVG Version: 6.00 Build 0)  -->

<svg
   version="1.1"
   id="Layer_1"
   x="0px"
   y="0px"
   width="66.292999"
   height="66"
   viewBox="0 0 66.292999 66"
   enable-background="new 0 0 100 100"
   xml:space="preserve"
   sodipodi:docname="02d.svg"
   inkscape:version="1.2.2 (b0a8486541, 2022-12-01, custom)"
   xmlns:inkscape="http://www.inkscape.org/namespaces/inkscape"
   xmlns:sodipodi="http://sodipodi.sourceforge.net/DTD/sodipodi-0.dtd"
   xmlns="http://www.w3.org/2000/svg"
   xmlns:svg="http://www.w3.org/2000/svg"><defs
   id="defs1944" /><sodipodi:namedview
   id="namedview1942"
   pagecolor="#ffffff"
   bordercolor="#000000"
   borderopacity="0.25"
   inkscape:showpageshadow="2"
   inkscape:pageopacity="0.0"
   inkscape:pagecheckerboard="0"
   inkscape:deskcolor="#d1d1d1"
   showgrid="false"
   inkscape:zoom="3.0052038"
   inkscape:cx="22.627417"
   inkscape:cy="32.776479"
   inkscape:window-width="1280"
   inkscape:window-height="1016"
   inkscape:window-x="1280"
   inkscape:window-y="27"
   inkscape:window-maximized="0"
   inkscape:current-layer="Layer_1" />
<path
   fill-rule="evenodd"
   clip-rule="evenodd"
   d="m 63.087501,26.641001 h -4 c -1.104,0 -2,-0.895 -2,-2 0,-1.104 0.896,-1.998 2,-1.998 h 4 c 1.104,0 2,0.895 2,1.998 0,1.105 -0.896,2 -2,2 z m -7.857,-13.312 c -0.781,0.781 -2.047,0.781 -2.828,0 -0.781,-0.78 -0.781,-2.047 0,-2.827 l 2.828,-2.8279995 c 0.781,-0.781 2.047,-0.781 2.828,0 0.781,0.78 0.781,2.047 0,2.8279995 z m -2.947,15.607 v 0 c 1.749,2.086 2.806,4.77 2.806,7.705 0,6.625 -5.372,11.998 -11.999,11.998 -2.775,0 -12.801,0 -15.998,0 -8.835,0 -15.998,-7.162 -15.998,-15.998 0,-8.836 7.163,-15.998 15.998,-15.998 1.572,0 3.09,0.232 4.523,0.654 2.195,-2.827 5.618,-4.654 9.475,-4.654 6.627,0 11.999,5.373 11.999,11.998 -10e-4,1.515 -0.294,2.961 -0.806,4.295 z m -37.19,3.705 c 0,6.627 5.371,11.998 11.998,11.998 3.616,0 12.979,0 15.998,0 4.418,0 7.999,-3.582 7.999,-7.998 0,-4.418 -3.581,-8 -7.999,-8 -1.6,0 -3.083,0.482 -4.333,1.291 -1.231,-5.316 -5.974,-9.289 -11.665,-9.289 -6.627,0 -11.998,5.371 -11.998,11.998 z m 25.996,-15.998 c -2.212,0 -4.215,0.898 -5.662,2.349 2.34,1.436 4.285,3.453 5.629,5.854 0.664,-0.113 1.337,-0.205 2.033,-0.205 2.125,0 4.119,0.559 5.85,1.527 v 0 c 0.096,-0.494 0.15,-1.004 0.15,-1.527 0,-4.416 -3.582,-7.998 -8,-7.998 z m 0,-7.9999995 c -1.104,0 -1.999,-0.895 -1.999,-1.999 v -3.999 c 0,-1.105 0.896,-2.00000005 1.999,-2.00000005 1.105,0 2,0.89500005 2,2.00000005 v 3.999 c 0,1.105 -0.894,1.999 -2,1.999 z m -14.14,4.6859995 -2.827,-2.827 c -0.781,-0.7809995 -0.781,-2.0479995 0,-2.8279995 0.78,-0.781 2.047,-0.781 2.827,0 l 2.828,2.8279995 c 0.781,0.78 0.781,2.047 0,2.827 -0.78,0.781 -2.047,0.781 -2.828,0 z"
   id="path1939" />
</svg>
