<?xml version="1.0" encoding="UTF-8" standalone="no"?>
<!-- Generator: Adobe Illustrator 15.1.0, SVG Export Plug-In . SVG Version: 6.00 Build 0)  -->

<svg
   version="1.1"
   id="Layer_1"
   x="0px"
   y="0px"
   width="66.292999"
   height="66"
   viewBox="0 0 66.292999 66"
   enable-background="new 0 0 100 100"
   xml:space="preserve"
   sodipodi:docname="02n.svg"
   inkscape:version="1.2.2 (b0a8486541, 2022-12-01, custom)"
   xmlns:inkscape="http://www.inkscape.org/namespaces/inkscape"
   xmlns:sodipodi="http://sodipodi.sourceforge.net/DTD/sodipodi-0.dtd"
   xmlns="http://www.w3.org/2000/svg"
   xmlns:svg="http://www.w3.org/2000/svg"><defs
   id="defs1820" /><sodipodi:namedview
   id="namedview1818"
   pagecolor="#ffffff"
   bordercolor="#000000"
   borderopacity="0.25"
   inkscape:showpageshadow="2"
   inkscape:pageopacity="0.0"
   inkscape:pagecheckerboard="0"
   inkscape:deskcolor="#d1d1d1"
   showgrid="false"
   inkscape:zoom="3.0052038"
   inkscape:cx="37.934199"
   inkscape:cy="41.760895"
   inkscape:window-width="1280"
   inkscape:window-height="1016"
   inkscape:window-x="1280"
   inkscape:window-y="27"
   inkscape:window-maximized="0"
   inkscape:current-layer="Layer_1" />
<path
   fill-rule="evenodd"
   clip-rule="evenodd"
   d="m 52.909501,29.758001 v 0 c 1.368,1.949 2.179,4.318 2.179,6.883 0,6.625 -5.371,11.998 -11.998,11.998 -2.775,0 -12.801,0 -15.998,0 -8.836,0 -15.998,-7.162 -15.998,-15.998 0,-8.836 7.162,-15.998 15.998,-15.998 2.002,0 3.914,0.375 5.68,1.047 v 0 c 1.635,-4.682 6.078,-8.0469995 11.318,-8.0469995 0.755,0 1.491,0.078 2.207,0.212 -0.131,0.5749995 -0.207,1.1729995 -0.207,1.7879995 0,4.418 3.581,7.999 7.998,7.999 0.616,0 1.213,-0.076 1.789,-0.208 0.133,0.717 0.211,1.453 0.211,2.208 -10e-4,3.133 -1.212,5.979 -3.179,8.116 z m -37.816,2.883 c 0,6.627 5.371,11.998 11.998,11.998 3.616,0 12.979,0 15.998,0 4.418,0 7.999,-3.582 7.999,-7.998 0,-4.418 -3.581,-8 -7.999,-8 -1.6,0 -3.083,0.482 -4.334,1.291 -1.231,-5.316 -5.973,-9.29 -11.664,-9.29 -6.627,0 -11.998,5.372 -11.998,11.999 z m 19.549,-14.096 c 10e-4,0 0.002,0 0.002,0 0,0 -10e-4,0 -0.002,0 z m 7.659,-4.695 c -2.9,0.664 -5.175,2.91 -5.925,5.775 v 0 c 1.918,1.372 3.523,3.152 4.68,5.22 0.664,-0.113 1.337,-0.205 2.033,-0.205 2.618,0 5.033,0.85 7.005,2.271 v 0 c 0.858,-0.979 1.485,-2.168 1.786,-3.482 -4.853,-0.904 -8.675,-4.723 -9.579,-9.579 z"
   id="path1815" />
</svg>
