<?xml version="1.0" encoding="UTF-8" standalone="no"?>
<!-- Generator: Adobe Illustrator 15.1.0, SVG Export Plug-In . SVG Version: 6.00 Build 0)  -->

<svg
   version="1.1"
   id="Layer_1"
   x="0px"
   y="0px"
   width="66.292999"
   height="66"
   viewBox="0 0 66.292999 66"
   enable-background="new 0 0 100 100"
   xml:space="preserve"
   sodipodi:docname="03n.svg"
   inkscape:version="1.2.2 (b0a8486541, 2022-12-01, custom)"
   xmlns:inkscape="http://www.inkscape.org/namespaces/inkscape"
   xmlns:sodipodi="http://sodipodi.sourceforge.net/DTD/sodipodi-0.dtd"
   xmlns="http://www.w3.org/2000/svg"
   xmlns:svg="http://www.w3.org/2000/svg"><defs
   id="defs1572" /><sodipodi:namedview
   id="namedview1570"
   pagecolor="#ffffff"
   bordercolor="#000000"
   borderopacity="0.25"
   inkscape:showpageshadow="2"
   inkscape:pageopacity="0.0"
   inkscape:pagecheckerboard="0"
   inkscape:deskcolor="#d1d1d1"
   showgrid="false"
   inkscape:zoom="2.125"
   inkscape:cx="28.235294"
   inkscape:cy="41.647059"
   inkscape:window-width="1280"
   inkscape:window-height="1016"
   inkscape:window-x="1280"
   inkscape:window-y="27"
   inkscape:window-maximized="0"
   inkscape:current-layer="Layer_1" />
<path
   fill-rule="evenodd"
   clip-rule="evenodd"
   d="m 27.091501,48.639001 c -8.835,0 -15.998,-7.162 -15.998,-15.998 0,-8.836 7.163,-15.998 15.998,-15.998 6.004,0 11.229,3.312 13.965,8.203 0.664,-0.113 1.338,-0.205 2.033,-0.205 6.627,0 11.999,5.373 11.999,12 0,6.625 -5.372,11.998 -11.999,11.998 -2.775,0 -12.8,0 -15.998,0 z m 15.998,-4 c 4.418,0 8,-3.582 8,-7.998 0,-4.418 -3.582,-8 -8,-8 -1.6,0 -3.082,0.481 -4.333,1.291 -1.231,-5.316 -5.974,-9.29 -11.665,-9.29 -6.626,0 -11.998,5.372 -11.998,11.999 0,6.626 5.372,11.998 11.998,11.998 3.617,0 12.979,0 15.998,0 z"
   id="path1567" />
</svg>
