<?xml version="1.0" encoding="UTF-8" standalone="no"?>
<!-- Generator: Adobe Illustrator 15.1.0, SVG Export Plug-In . SVG Version: 6.00 Build 0)  -->

<svg
   version="1.1"
   id="Layer_1"
   x="0px"
   y="0px"
   width="66.292999"
   height="66"
   viewBox="0 0 66.292999 66"
   enable-background="new 0 0 100 100"
   xml:space="preserve"
   sodipodi:docname="04n.svg"
   inkscape:version="1.2.2 (b0a8486541, 2022-12-01, custom)"
   xmlns:inkscape="http://www.inkscape.org/namespaces/inkscape"
   xmlns:sodipodi="http://sodipodi.sourceforge.net/DTD/sodipodi-0.dtd"
   xmlns="http://www.w3.org/2000/svg"
   xmlns:svg="http://www.w3.org/2000/svg"><defs
   id="defs153" /><sodipodi:namedview
   id="namedview151"
   pagecolor="#ffffff"
   bordercolor="#000000"
   borderopacity="0.25"
   inkscape:showpageshadow="2"
   inkscape:pageopacity="0.0"
   inkscape:pagecheckerboard="0"
   inkscape:deskcolor="#d1d1d1"
   showgrid="false"
   inkscape:zoom="3.49"
   inkscape:cx="44.126074"
   inkscape:cy="-5.0143266"
   inkscape:window-width="1280"
   inkscape:window-height="1016"
   inkscape:window-x="1280"
   inkscape:window-y="27"
   inkscape:window-maximized="0"
   inkscape:current-layer="Layer_1" />
<path
   id="path355"
   d="m 24.37111,14.164063 c -8.834983,0 -15.9980469,7.162065 -15.9980469,15.998047 0,8.835982 7.1630639,15.998047 15.9980469,15.998047 h 7.035156 c 1.612066,3.358248 5.043762,5.675781 9.017578,5.675781 h 9.998047 c 4.14156,0 7.498047,-3.357737 7.498047,-7.498047 0,-3.591636 -2.524817,-6.590255 -5.896484,-7.324218 0.223045,-0.914327 0.34375,-1.868663 0.34375,-2.851563 0,-6.626986 -5.37106,-12 -11.998047,-12 -0.694998,0 -1.369203,0.09208 -2.033203,0.205078 -2.735994,-4.89099 -7.960856,-8.203125 -13.964844,-8.203125 z m 0,4 c 5.69099,0 10.433065,3.973073 11.664062,9.289063 1.250999,-0.81 2.733988,-1.291016 4.333985,-1.291016 4.417991,0 8,3.582009 8,8 0,0.494879 -0.05061,0.977202 -0.136719,1.447266 -1.830934,-2.29374 -4.644911,-3.767579 -7.808594,-3.767579 -5.521456,0 -9.998047,4.474014 -9.998047,9.996094 0,0.107847 0.0044,0.215244 0.0078,0.322266 h -6.0625 c -6.625987,0 -11.998047,-5.372061 -11.998047,-11.998047 0,-6.626986 5.37206,-11.998047 11.998047,-11.998047 z m 16.052734,16.175781 c 3.556604,0 6.519746,2.484393 7.289063,5.806641 0.781817,-0.506211 1.709061,-0.806641 2.708984,-0.806641 2.76104,0 5,2.237007 5,4.998047 0,2.759789 -2.23896,5 -5,5 h -9.998047 c -4.140934,0 -7.498047,-3.359065 -7.498047,-7.5 0,-4.141559 3.357113,-7.498047 7.498047,-7.498047 z" />
</svg>
