<?xml version="1.0" encoding="UTF-8" standalone="no"?>
<!-- Generator: Adobe Illustrator 15.1.0, SVG Export Plug-In . SVG Version: 6.00 Build 0)  -->

<svg
   version="1.1"
   id="Layer_1"
   x="0px"
   y="0px"
   width="66.292999"
   height="66"
   viewBox="0 0 66.292999 66"
   enable-background="new 0 0 100 100"
   xml:space="preserve"
   sodipodi:docname="09d.svg"
   inkscape:version="1.2.2 (b0a8486541, 2022-12-01, custom)"
   xmlns:inkscape="http://www.inkscape.org/namespaces/inkscape"
   xmlns:sodipodi="http://sodipodi.sourceforge.net/DTD/sodipodi-0.dtd"
   xmlns="http://www.w3.org/2000/svg"
   xmlns:svg="http://www.w3.org/2000/svg"><defs
   id="defs1206" /><sodipodi:namedview
   id="namedview1204"
   pagecolor="#ffffff"
   bordercolor="#000000"
   borderopacity="0.25"
   inkscape:showpageshadow="2"
   inkscape:pageopacity="0.0"
   inkscape:pagecheckerboard="0"
   inkscape:deskcolor="#d1d1d1"
   showgrid="false"
   inkscape:zoom="3.0052038"
   inkscape:cx="13.975758"
   inkscape:cy="23.792063"
   inkscape:window-width="1280"
   inkscape:window-height="1016"
   inkscape:window-x="1280"
   inkscape:window-y="27"
   inkscape:window-maximized="0"
   inkscape:current-layer="Layer_1" />
<path
   fill-rule="evenodd"
   clip-rule="evenodd"
   d="m 63.087501,26.642001 h -4 c -1.104,0 -2,-0.895 -2,-2 0,-1.104 0.896,-2 2,-2 h 4 c 1.104,0 2,0.896 2,2 0,1.106 -0.896,2 -2,2 z m -7.857,-13.312 c -0.781,0.781 -2.047,0.781 -2.828,0 -0.781,-0.78 -0.781,-2.047 0,-2.828 l 2.828,-2.8279995 c 0.781,-0.78 2.047,-0.78 2.828,0 0.781,0.781 0.781,2.048 0,2.8279995 z m -2.947,15.607 v 0 c 1.75,2.084 2.805,4.77 2.805,7.704 0,5.223 -3.342,9.652 -7.998,11.301 v -4.381 c 2.389,-1.383 4,-3.961 4,-6.92 0,-4.417 -3.582,-7.999 -8,-7.999 -1.6,0 -3.084,0.48 -4.334,1.291 -1.23,-5.317 -5.973,-9.29 -11.664,-9.29 -6.627,0 -11.998,5.372 -11.998,11.998 0,3.55 1.551,6.728 4,8.925 v 4.916 c -4.777,-2.768 -8,-7.922 -8,-13.841 0,-8.835 7.162,-15.997 15.998,-15.997 1.572,0 3.09,0.231 4.523,0.654 2.195,-2.827 5.617,-4.654 9.475,-4.654 6.627,0 11.998,5.371 11.998,11.998 -10e-4,1.516 -0.292,2.96 -0.805,4.295 z m -11.194,-12.293 c -2.211,0 -4.215,0.898 -5.662,2.35 2.34,1.435 4.285,3.452 5.629,5.854 0.664,-0.113 1.338,-0.205 2.033,-0.205 2.125,0 4.119,0.559 5.85,1.527 v 0 c 0.096,-0.494 0.15,-1.004 0.15,-1.527 0,-4.419 -3.582,-7.999 -8,-7.999 z m 0,-7.9999995 c -1.104,0 -2,-0.895 -2,-2 v -3.999 c 0,-1.104 0.896,-1.99900005 2,-1.99900005 1.105,0 2,0.89500005 2,1.99900005 v 3.999 c 0,1.106 -0.894,2 -2,2 z m -14.14,4.6859995 -2.828,-2.828 c -0.779,-0.7799995 -0.779,-2.0469995 0,-2.8279995 0.781,-0.78 2.049,-0.78 2.828,0 l 2.828,2.8279995 c 0.781,0.781 0.781,2.048 0,2.828 -0.781,0.781 -2.047,0.781 -2.828,0 z m -1.858,23.311 c 1.105,0 2,0.896 2,2 v 15.998 c 0,1.105 -0.895,2 -2,2 -1.104,0 -2,-0.895 -2,-2 v -15.998 c 0,-1.104 0.897,-2 2,-2 z m 8,4 c 1.104,0 2,0.895 2,2 v 15.998 c 0,1.104 -0.896,2 -2,2 -1.105,0 -2,-0.896 -2,-2 v -15.998 c 0,-1.106 0.895,-2 2,-2 z m 7.998,-4 c 1.105,0 2,0.896 2,2 v 15.998 c 0,1.105 -0.895,2 -2,2 -1.104,0 -2,-0.895 -2,-2 v -15.998 c 0,-1.104 0.897,-2 2,-2 z"
   id="path1201" />
</svg>
