<?xml version="1.0" encoding="UTF-8" standalone="no"?>
<!-- Generator: Adobe Illustrator 15.1.0, SVG Export Plug-In . SVG Version: 6.00 Build 0)  -->

<svg
   version="1.1"
   id="Layer_1"
   x="0px"
   y="0px"
   width="66.292999"
   height="66"
   viewBox="0 0 66.292999 66"
   enable-background="new 0 0 100 100"
   xml:space="preserve"
   sodipodi:docname="10d.svg"
   inkscape:version="1.2.2 (b0a8486541, 2022-12-01, custom)"
   xmlns:inkscape="http://www.inkscape.org/namespaces/inkscape"
   xmlns:sodipodi="http://sodipodi.sourceforge.net/DTD/sodipodi-0.dtd"
   xmlns="http://www.w3.org/2000/svg"
   xmlns:svg="http://www.w3.org/2000/svg"><defs
   id="defs954" /><sodipodi:namedview
   id="namedview952"
   pagecolor="#ffffff"
   bordercolor="#000000"
   borderopacity="0.25"
   inkscape:showpageshadow="2"
   inkscape:pageopacity="0.0"
   inkscape:pagecheckerboard="0"
   inkscape:deskcolor="#d1d1d1"
   showgrid="false"
   inkscape:zoom="4.25"
   inkscape:cx="43.529412"
   inkscape:cy="30"
   inkscape:window-width="1280"
   inkscape:window-height="1016"
   inkscape:window-x="1280"
   inkscape:window-y="27"
   inkscape:window-maximized="0"
   inkscape:current-layer="Layer_1" />
<path
   fill-rule="evenodd"
   clip-rule="evenodd"
   d="m 63.086501,26.641001 h -3.999 c -1.104,0 -2,-0.895 -2,-2 0,-1.104 0.896,-1.999 2,-1.999 h 3.999 c 1.104,0 2,0.895 2,1.999 0,1.105 -0.895,2 -2,2 z m -7.856,-13.312 c -0.781,0.781 -2.048,0.781 -2.828,0 -0.781,-0.78 -0.781,-2.047 0,-2.827 l 2.828,-2.8279995 c 0.78,-0.781 2.047,-0.781 2.828,0 0.78,0.78 0.78,2.047 0,2.8279995 z m -2.947,15.607 v 0 c 1.749,2.086 2.805,4.77 2.805,7.705 0,5.221 -3.342,9.652 -7.999,11.301 v -4.381 c 2.389,-1.385 4,-3.961 4,-6.92 0,-4.418 -3.582,-8 -7.999,-8 -1.601,0 -3.084,0.482 -4.334,1.291 -1.231,-5.316 -5.973,-9.29 -11.664,-9.29 -6.627,0 -11.999,5.372 -11.999,11.999 0,3.549 1.551,6.729 4,8.926 v 4.914 c -4.777,-2.768 -7.999,-7.922 -7.999,-13.84 0,-8.836 7.162,-15.998 15.998,-15.998 1.572,0 3.089,0.232 4.523,0.654 2.195,-2.827 5.617,-4.654 9.475,-4.654 6.627,0 11.998,5.372 11.998,11.998 -10e-4,1.515 -0.293,2.961 -0.805,4.295 z m -11.194,-12.293 c -2.213,0 -4.215,0.898 -5.663,2.35 2.341,1.436 4.286,3.452 5.63,5.853 0.664,-0.113 1.336,-0.205 2.033,-0.205 2.125,0 4.118,0.559 5.85,1.527 v 0 c 0.096,-0.494 0.149,-1.004 0.149,-1.527 0,-4.417 -3.581,-7.998 -7.999,-7.998 z m 0,-7.9999995 c -1.104,0 -2,-0.895 -2,-1.999 v -3.999 c 0,-1.105 0.896,-2.00000005 2,-2.00000005 1.104,0 2,0.89500005 2,2.00000005 v 3.999 c 0,1.105 -0.895,1.999 -2,1.999 z m -14.14,4.6859995 -2.828,-2.827 c -0.78,-0.7809995 -0.78,-2.0479995 0,-2.8279995 0.781,-0.781 2.047,-0.781 2.828,0 l 2.828,2.8279995 c 0.781,0.78 0.781,2.047 0,2.827 -0.781,0.781 -2.047,0.781 -2.828,0 z m -1.858,23.312 c 1.104,0 2,0.895 2,2 v 3.998 c 0,1.105 -0.896,2 -2,2 -1.104,0 -2,-0.895 -2,-2 v -3.998 c 0,-1.106 0.896,-2 2,-2 z m 0,11.998 c 1.104,0 2,0.895 2,2 v 3.998 c 0,1.105 -0.896,2 -2,2 -1.104,0 -2,-0.895 -2,-2 v -3.998 c 0,-1.106 0.896,-2 2,-2 z m 7.999,-8 c 1.104,0 2,0.896 2,2 v 4 c 0,1.104 -0.896,2 -2,2 -1.104,0 -2,-0.896 -2,-2 v -4 c 0,-1.104 0.896,-2 2,-2 z m 0,12 c 1.104,0 2,0.895 2,1.998 v 4 c 0,1.105 -0.896,2 -2,2 -1.104,0 -2,-0.895 -2,-2 v -4 c 0,-1.104 0.896,-1.998 2,-1.998 z m 7.999,-15.998 c 1.104,0 2,0.895 2,2 v 3.998 c 0,1.105 -0.896,2 -2,2 -1.104,0 -2,-0.895 -2,-2 v -3.998 c 0,-1.106 0.896,-2 2,-2 z m 0,11.998 c 1.104,0 2,0.895 2,2 v 3.998 c 0,1.105 -0.896,2 -2,2 -1.104,0 -2,-0.895 -2,-2 v -3.998 c 0,-1.106 0.896,-2 2,-2 z"
   id="path949" />
</svg>
