<?xml version="1.0" encoding="UTF-8" standalone="no"?>
<!-- Generator: Adobe Illustrator 15.1.0, SVG Export Plug-In . SVG Version: 6.00 Build 0)  -->

<svg
   version="1.1"
   id="Layer_1"
   x="0px"
   y="0px"
   width="66.292999"
   height="66"
   viewBox="0 0 66.292999 66"
   enable-background="new 0 0 100 100"
   xml:space="preserve"
   sodipodi:docname="10n.svg"
   inkscape:version="1.2.2 (b0a8486541, 2022-12-01, custom)"
   xmlns:inkscape="http://www.inkscape.org/namespaces/inkscape"
   xmlns:sodipodi="http://sodipodi.sourceforge.net/DTD/sodipodi-0.dtd"
   xmlns="http://www.w3.org/2000/svg"
   xmlns:svg="http://www.w3.org/2000/svg"><defs
   id="defs830" /><sodipodi:namedview
   id="namedview828"
   pagecolor="#ffffff"
   bordercolor="#000000"
   borderopacity="0.25"
   inkscape:showpageshadow="2"
   inkscape:pageopacity="0.0"
   inkscape:pagecheckerboard="0"
   inkscape:deskcolor="#d1d1d1"
   showgrid="false"
   inkscape:zoom="3.0052038"
   inkscape:cx="45.58759"
   inkscape:cy="73.039971"
   inkscape:window-width="1280"
   inkscape:window-height="1016"
   inkscape:window-x="1280"
   inkscape:window-y="27"
   inkscape:window-maximized="0"
   inkscape:current-layer="Layer_1" />
<path
   fill-rule="evenodd"
   clip-rule="evenodd"
   d="m 52.908501,29.758001 v 0 c 1.369,1.949 2.18,4.318 2.18,6.883 0,5.221 -3.342,9.652 -7.998,11.301 v -4.381 c 2.389,-1.385 3.998,-3.961 3.998,-6.92 0,-4.418 -3.58,-8 -7.998,-8 -1.6,0 -3.084,0.482 -4.334,1.291 -1.23,-5.316 -5.973,-9.29 -11.664,-9.29 -6.627,0 -11.998,5.372 -11.998,11.999 0,3.549 1.549,6.729 3.998,8.926 v 4.914 c -4.775,-2.768 -7.998,-7.922 -7.998,-13.84 0,-8.836 7.162,-15.998 15.998,-15.998 2.002,0 3.914,0.375 5.68,1.047 v 0 c 1.635,-4.682 6.078,-8.0469995 11.318,-8.0469995 0.756,0 1.49,0.078 2.207,0.212 -0.131,0.5749995 -0.207,1.1729995 -0.207,1.7879995 0,4.418 3.58,7.999 7.998,7.999 0.615,0 1.213,-0.076 1.789,-0.208 0.133,0.717 0.211,1.453 0.211,2.208 -10e-4,3.133 -1.212,5.978 -3.18,8.116 z m -10.608,-15.908 c -2.9,0.664 -5.174,2.91 -5.924,5.775 v 0 c 1.918,1.372 3.523,3.152 4.68,5.221 0.664,-0.113 1.336,-0.205 2.033,-0.205 2.617,0 5.033,0.849 7.006,2.271 v 0 c 0.857,-0.979 1.484,-2.168 1.785,-3.482 -4.853,-0.905 -8.675,-4.725 -9.58,-9.58 z m -17.209,22.791 c 1.105,0 2,0.895 2,2 v 3.998 c 0,1.105 -0.895,2 -2,2 -1.104,0 -2,-0.895 -2,-2 v -3.998 c 0,-1.106 0.897,-2 2,-2 z m 0,11.998 c 1.105,0 2,0.895 2,2 v 3.998 c 0,1.105 -0.895,2 -2,2 -1.104,0 -2,-0.895 -2,-2 v -3.998 c 0,-1.106 0.897,-2 2,-2 z m 8,-8 c 1.104,0 1.998,0.896 1.998,2 v 4 c 0,1.104 -0.895,2 -1.998,2 -1.105,0 -2,-0.896 -2,-2 v -4 c 0,-1.104 0.895,-2 2,-2 z m 0,12 c 1.104,0 1.998,0.895 1.998,1.998 v 4 c 0,1.105 -0.895,2 -1.998,2 -1.105,0 -2,-0.895 -2,-2 v -4 c 0,-1.104 0.895,-1.998 2,-1.998 z m 7.998,-15.998 c 1.105,0 2,0.895 2,2 v 3.998 c 0,1.105 -0.895,2 -2,2 -1.104,0 -2,-0.895 -2,-2 v -3.998 c 0,-1.106 0.897,-2 2,-2 z m 0,11.998 c 1.105,0 2,0.895 2,2 v 3.998 c 0,1.105 -0.895,2 -2,2 -1.104,0 -2,-0.895 -2,-2 v -3.998 c 0,-1.106 0.897,-2 2,-2 z"
   id="path825" />
</svg>
