<?xml version="1.0" encoding="UTF-8" standalone="no"?>
<!-- Generator: Adobe Illustrator 15.1.0, SVG Export Plug-In . SVG Version: 6.00 Build 0)  -->

<svg
   version="1.1"
   id="Layer_1"
   x="0px"
   y="0px"
   width="53.126175"
   height="51.012173"
   viewBox="0 0 53.126175 51.012173"
   enable-background="new 0 0 100 100"
   xml:space="preserve"
   sodipodi:docname="11n.svg"
   inkscape:version="1.2.2 (b0a8486541, 2022-12-01, custom)"
   xmlns:inkscape="http://www.inkscape.org/namespaces/inkscape"
   xmlns:sodipodi="http://sodipodi.sourceforge.net/DTD/sodipodi-0.dtd"
   xmlns="http://www.w3.org/2000/svg"
   xmlns:svg="http://www.w3.org/2000/svg"><defs
   id="defs582" /><sodipodi:namedview
   id="namedview580"
   pagecolor="#ffffff"
   bordercolor="#000000"
   borderopacity="0.25"
   inkscape:showpageshadow="2"
   inkscape:pageopacity="0.0"
   inkscape:pagecheckerboard="0"
   inkscape:deskcolor="#d1d1d1"
   showgrid="false"
   inkscape:zoom="4.25"
   inkscape:cx="50.117647"
   inkscape:cy="47.411765"
   inkscape:window-width="1280"
   inkscape:window-height="1016"
   inkscape:window-x="1280"
   inkscape:window-y="27"
   inkscape:window-maximized="0"
   inkscape:current-layer="Layer_1" />
<path
   fill-rule="evenodd"
   clip-rule="evenodd"
   d="m 36.560587,35.506086 c -0.28,0 -0.649,0 -1.062,0 l 3.585,-4.412 c 3.181,-1.057 5.477,-4.053 5.477,-7.588 0,-4.418 -3.581,-7.998 -7.999,-7.998 -1.601,0 -3.083,0.48 -4.333,1.29 -1.232,-5.316 -5.974,-9.2900002 -11.665,-9.2900002 -6.626,0 -11.9980001,5.3720002 -11.9980001,12.0000002 0,5.446 3.6320001,10.038 8.6040001,11.504 l -1.349,3.777 c -6.5200001,-2.021 -11.2550001,-8.098 -11.2550001,-15.282 0,-8.835 7.1630001,-15.9990002 15.9980001,-15.9990002 6.004,0 11.229,3.312 13.965,8.2040002 0.664,-0.114 1.337,-0.205 2.033,-0.205 6.627,0 11.999,5.371 11.999,11.998 0,6.627 -5.373,12.001 -12,12.001 z m -11.998,-14 h 9.998 l -5.999,10 h 6.999 l -12.998,15.998 3.6,-11.998 h -6.6 z"
   id="path577" />
</svg>
