<?xml version="1.0" encoding="UTF-8" standalone="no"?>
<!-- Generator: Adobe Illustrator 15.1.0, SVG Export Plug-In . SVG Version: 6.00 Build 0)  -->

<svg
   version="1.1"
   id="Layer_1"
   x="0px"
   y="0px"
   width="66.292999"
   height="66"
   viewBox="0 0 66.292999 66"
   enable-background="new 0 0 100 100"
   xml:space="preserve"
   sodipodi:docname="13n.svg"
   inkscape:version="1.2.2 (b0a8486541, 2022-12-01, custom)"
   xmlns:inkscape="http://www.inkscape.org/namespaces/inkscape"
   xmlns:sodipodi="http://sodipodi.sourceforge.net/DTD/sodipodi-0.dtd"
   xmlns="http://www.w3.org/2000/svg"
   xmlns:svg="http://www.w3.org/2000/svg"><defs
   id="defs334" /><sodipodi:namedview
   id="namedview332"
   pagecolor="#ffffff"
   bordercolor="#000000"
   borderopacity="0.25"
   inkscape:showpageshadow="2"
   inkscape:pageopacity="0.0"
   inkscape:pagecheckerboard="0"
   inkscape:deskcolor="#d1d1d1"
   showgrid="false"
   inkscape:zoom="8.5"
   inkscape:cx="31.176471"
   inkscape:cy="33.235294"
   inkscape:window-width="1280"
   inkscape:window-height="1016"
   inkscape:window-x="1280"
   inkscape:window-y="27"
   inkscape:window-maximized="0"
   inkscape:current-layer="Layer_1" />
<path
   fill-rule="evenodd"
   clip-rule="evenodd"
   d="m 42.805501,29.733001 -1.958,1.13 c 0.188,0.682 0.298,1.396 0.298,2.137 0,0.742 -0.109,1.456 -0.298,2.138 l 1.958,1.13 c 0.956,0.553 1.284,1.775 0.731,2.732 -0.552,0.956 -1.774,1.284 -2.731,0.731 l -1.954,-1.128 c -1.003,1.02 -2.277,1.766 -3.705,2.134 v 2.262 c 0,1.104 -0.896,2 -2,2 -1.104,0 -2,-0.896 -2,-2 v -2.262 c -1.428,-0.368 -2.703,-1.114 -3.705,-2.134 l -1.954,1.128 c -0.957,0.553 -2.18,0.225 -2.731,-0.731 -0.553,-0.957 -0.225,-2.18 0.731,-2.732 l 1.958,-1.13 c -0.189,-0.682 -0.298,-1.396 -0.298,-2.138 0,-0.741 0.108,-1.455 0.298,-2.137 l -1.958,-1.13 c -0.956,-0.553 -1.284,-1.775 -0.731,-2.732 0.552,-0.956 1.774,-1.284 2.731,-0.731 l 1.954,1.128 c 1.002,-1.02 2.277,-1.766 3.705,-2.134 v -2.262 c 0,-1.104 0.896,-2 2,-2 1.104,0 2,0.896 2,2 v 2.262 c 1.428,0.368 2.702,1.114 3.705,2.134 l 1.954,-1.128 c 0.957,-0.553 2.18,-0.225 2.731,0.731 0.553,0.957 0.225,2.18 -0.731,2.732 z m -9.659,-0.732 c -2.209,0 -4,1.791 -4,3.999 0,2.209 1.791,4 4,4 2.209,0 3.999,-1.791 3.999,-4 0,-2.208 -1.79,-3.999 -3.999,-3.999 z"
   id="path329" />
</svg>
