<?xml version="1.0" encoding="UTF-8" standalone="no"?>
<!-- Generator: Adobe Illustrator 15.1.0, SVG Export Plug-In . SVG Version: 6.00 Build 0)  -->

<svg
   version="1.1"
   id="Layer_1"
   x="0px"
   y="0px"
   width="66.292999"
   height="66"
   viewBox="0 0 66.292999 66"
   enable-background="new 0 0 100 100"
   xml:space="preserve"
   sodipodi:docname="50n.svg"
   inkscape:version="1.2.2 (b0a8486541, 2022-12-01, custom)"
   xmlns:inkscape="http://www.inkscape.org/namespaces/inkscape"
   xmlns:sodipodi="http://sodipodi.sourceforge.net/DTD/sodipodi-0.dtd"
   xmlns="http://www.w3.org/2000/svg"
   xmlns:svg="http://www.w3.org/2000/svg"><defs
   id="defs153" /><sodipodi:namedview
   id="namedview151"
   pagecolor="#ffffff"
   bordercolor="#000000"
   borderopacity="0.25"
   inkscape:showpageshadow="2"
   inkscape:pageopacity="0.0"
   inkscape:pagecheckerboard="0"
   inkscape:deskcolor="#d1d1d1"
   showgrid="false"
   showguides="true"
   inkscape:zoom="5.7487781"
   inkscape:cx="33.572351"
   inkscape:cy="27.397126"
   inkscape:window-width="1280"
   inkscape:window-height="1016"
   inkscape:window-x="0"
   inkscape:window-y="27"
   inkscape:window-maximized="0"
   inkscape:current-layer="Layer_1" />
<path
   fill-rule="evenodd"
   clip-rule="evenodd"
   d="m 53.144501,48.641001 h -39.995 c -1.104,0 -2,-0.896 -2,-2 0,-1.105 0.896,-2 2,-2 h 39.995 c 1.104,0 2,0.895 2,2 0,1.103 -0.895,2 -2,2 z m 0,-8 h -39.995 c -1.104,0 -2,-0.895 -2,-2 0,-1.104 0.896,-2 2,-2 h 39.995 c 1.104,0 2,0.896 2,2 0,1.105 -0.895,2 -2,2 z m -9.999,-11.998 c -1.601,0 -3.083,0.48 -4.333,1.291 -1.232,-5.317 -5.974,-9.291 -11.665,-9.291 -6.626,0 -11.998,5.373 -11.998,12 h -4 c 0,-8.835 7.163,-15.999 15.998,-15.999 6.004,0 11.229,3.312 13.965,8.204 0.664,-0.113 1.337,-0.205 2.033,-0.205 5.222,0 9.652,3.342 11.301,8 h -4.381 c -1.384,-2.39 -3.961,-4 -6.92,-4 z m -29.996,23.996 h 39.995 c 1.104,0 2,0.896 2,2 0,1.105 -0.896,2 -2,2 h -39.995 c -1.104,0 -2,-0.895 -2,-2 0,-1.104 0.895,-2 2,-2 z"
   id="path148" />
</svg>
