<?xml version="1.0" encoding="UTF-8" standalone="no"?>
<!-- Generator: Adobe Illustrator 15.1.0, SVG Export Plug-In . SVG Version: 6.00 Build 0)  -->

<svg
   version="1.1"
   id="Layer_1"
   x="0px"
   y="0px"
   width="52"
   height="52"
   viewBox="0 0 52 52"
   enable-background="new 0 0 100 100"
   xml:space="preserve"
   sodipodi:docname="Sunrise.svg"
   inkscape:version="1.2.2 (b0a8486541, 2022-12-01, custom)"
   xmlns:inkscape="http://www.inkscape.org/namespaces/inkscape"
   xmlns:sodipodi="http://sodipodi.sourceforge.net/DTD/sodipodi-0.dtd"
   xmlns="http://www.w3.org/2000/svg"
   xmlns:svg="http://www.w3.org/2000/svg"><defs
   id="defs214" /><sodipodi:namedview
   id="namedview212"
   pagecolor="#ffffff"
   bordercolor="#000000"
   borderopacity="0.25"
   inkscape:showpageshadow="2"
   inkscape:pageopacity="0.0"
   inkscape:pagecheckerboard="0"
   inkscape:deskcolor="#d1d1d1"
   showgrid="false"
   inkscape:zoom="3.0052038"
   inkscape:cx="37.767821"
   inkscape:cy="25.455844"
   inkscape:window-width="1279"
   inkscape:window-height="1016"
   inkscape:window-x="1281"
   inkscape:window-y="27"
   inkscape:window-maximized="0"
   inkscape:current-layer="Layer_1" />
<g
   id="g209"
   transform="translate(-23.999999,-23.999999)">
	<g
   id="g207">
		<path
   fill-rule="evenodd"
   clip-rule="evenodd"
   d="M 38.688,41.859 35.86,39.031 c -0.781,-0.78 -2.047,-0.78 -2.828,0 -0.781,0.781 -0.781,2.047 0,2.828 l 2.828,2.828 c 0.781,0.781 2.047,0.781 2.828,0 0.781,-0.781 0.781,-2.046 0,-2.828 z M 71.997,54 h -3.999 c -1.104,0 -1.999,0.896 -1.999,2 0,1.104 0.895,2 1.999,2 h 3.999 c 1.105,0 2,-0.896 2,-2 0,-1.104 -0.894,-2 -2,-2 z m -39.994,0 h -4 c -1.104,0 -2,0.896 -2,2 0,1.104 0.896,2 2,2 h 4 c 1.104,0 2,-0.896 2,-2 0,-1.104 -0.897,-2 -2,-2 z m 27.996,9.999 H 40.001 c -1.104,0 -1.999,0.896 -1.999,2 0,1.104 0.896,1.999 1.999,1.999 h 19.998 c 1.104,0 2,-0.895 2,-1.999 0,-1.104 -0.895,-2 -2,-2 z m 6.97,-24.968 c -0.78,-0.78 -2.048,-0.78 -2.828,0 l -2.828,2.828 c -0.78,0.781 -0.78,2.047 0,2.828 0.781,0.781 2.048,0.781 2.828,0 l 2.828,-2.828 c 0.78,-0.781 0.78,-2.047 0,-2.828 z m -16.968,0.971 c 1.104,0 1.999,-0.896 1.999,-2 v -3.999 c 0,-1.104 -0.896,-2 -1.999,-2 -1.105,0 -2,0.896 -2,2 v 3.999 c 0,1.104 0.895,2 2,2 z m 0,4 c -6.627,0 -11.999,5.371 -11.999,11.998 0,1.404 0.254,2.747 0.697,3.999 H 43.08 C 42.397,58.822 42.001,57.459 42.001,56 c 0,-4.418 3.582,-7.999 8,-7.999 4.417,0 7.998,3.581 7.998,7.999 0,1.459 -0.396,2.822 -1.078,3.999 h 4.381 c 0.443,-1.252 0.697,-2.595 0.697,-3.999 0,-6.627 -5.372,-11.998 -11.998,-11.998 z m 0,16.247 c 0.552,0 0.999,-0.447 0.999,-1 v -3.827 l 2.536,2.535 c 0.39,0.391 1.023,0.391 1.414,0 0.39,-0.391 0.39,-1.023 0,-1.414 l -4.242,-4.242 c -0.391,-0.391 -1.024,-0.391 -1.414,0 l -4.242,4.242 c -0.391,0.391 -0.391,1.023 0,1.414 0.391,0.391 1.023,0.391 1.414,0 l 2.535,-2.535 v 3.827 c 0,0.553 0.447,1 1,1 z"
   id="path205" />
	</g>
</g>
</svg>
