<?xml version="1.0" encoding="UTF-8" standalone="no"?>
<!-- Generator: Adobe Illustrator 15.1.0, SVG Export Plug-In . SVG Version: 6.00 Build 0)  -->

<svg
   version="1.1"
   id="Layer_1"
   x="0px"
   y="0px"
   width="52"
   height="52"
   viewBox="0 0 52 52"
   enable-background="new 0 0 100 100"
   xml:space="preserve"
   sodipodi:docname="Sunset.svg"
   inkscape:version="1.2.2 (b0a8486541, 2022-12-01, custom)"
   xmlns:inkscape="http://www.inkscape.org/namespaces/inkscape"
   xmlns:sodipodi="http://sodipodi.sourceforge.net/DTD/sodipodi-0.dtd"
   xmlns="http://www.w3.org/2000/svg"
   xmlns:svg="http://www.w3.org/2000/svg"><defs
   id="defs153" /><sodipodi:namedview
   id="namedview151"
   pagecolor="#ffffff"
   bordercolor="#000000"
   borderopacity="0.25"
   inkscape:showpageshadow="2"
   inkscape:pageopacity="0.0"
   inkscape:pagecheckerboard="0"
   inkscape:deskcolor="#d1d1d1"
   showgrid="false"
   inkscape:zoom="4.065"
   inkscape:cx="28.905289"
   inkscape:cy="17.589176"
   inkscape:window-width="1281"
   inkscape:window-height="1016"
   inkscape:window-x="0"
   inkscape:window-y="27"
   inkscape:window-maximized="0"
   inkscape:current-layer="Layer_1" />
<path
   fill-rule="evenodd"
   clip-rule="evenodd"
   d="m 47.998001,34.000001 h -4 c -1.104,0 -1.999,-0.896 -1.999,-2 0,-1.104 0.895,-2 1.999,-2 h 4 c 1.104,0 1.999,0.896 1.999,2 0,1.104 -0.894,2 -1.999,2 z m -7.856,-13.312 c -0.781,0.781 -2.048,0.781 -2.828,0 -0.781,-0.781 -0.781,-2.047 0,-2.828 l 2.828,-2.828 c 0.78,-0.78 2.047,-0.78 2.827,0 0.781,0.781 0.781,2.047 0,2.828 z m -2.84,15.311 h -4.381 c 0.682,-1.177 1.078,-2.54 1.078,-3.999 0,-4.418 -3.581,-7.999 -7.998,-7.999 -4.418,0 -8,3.581 -8,7.999 0,1.459 0.397,2.822 1.08,3.999 h -4.382 c -0.443,-1.252 -0.697,-2.595 -0.697,-3.999 0,-6.627 5.372,-11.998 11.999,-11.998 6.626,0 11.998,5.371 11.998,11.998 0,1.404 -0.254,2.747 -0.697,3.999 z m -11.301,-19.997 c -1.105,0 -2,-0.896 -2,-2 v -3.999 c 0,-1.1040003 0.895,-2.0000003 2,-2.0000003 1.104,0 2,0.896 2,2.0000003 v 3.999 c 0,1.104 -0.897,2 -2,2 z m -14.141,4.686 -2.8280003,-2.828 c -0.781,-0.781 -0.781,-2.047 0,-2.828 0.781,-0.78 2.0470003,-0.78 2.8280003,0 l 2.828,2.828 c 0.781,0.781 0.781,2.047 0,2.828 -0.781,0.781 -2.046,0.781 -2.828,0 z m -1.857,11.312 c 0,1.104 -0.8960003,2 -2.0000003,2 h -4 c -1.104,0 -2,-0.896 -2,-2 0,-1.104 0.896,-2 2,-2 h 4 c 1.104,0 2.0000003,0.896 2.0000003,2 z m 15.998,-4 c 0.552,0 1,0.448 1,1 v 3.828 l 2.535,-2.535 c 0.391,-0.391 1.023,-0.391 1.414,0 0.391,0.391 0.391,1.023 0,1.414 l -4.242,4.242 c -0.391,0.391 -1.023,0.391 -1.414,0 l -4.242,-4.242 c -0.391,-0.391 -0.391,-1.023 0,-1.414 0.391,-0.391 1.023,-0.391 1.414,0 l 2.535,2.535 v -3.828 c 0,-0.552 0.447,-1 1,-1 z m -9.999,11.999 h 19.997 c 1.104,0 2,0.896 2,2 0,1.104 -0.896,1.999 -2,1.999 h -19.997 c -1.104,0 -2,-0.895 -2,-1.999 0,-1.104 0.895,-2 2,-2 z"
   id="path148" />
</svg>
